<?xml version="1.0" encoding="UTF-8" standalone="no"?>
<svg
   xmlns:dc="http://purl.org/dc/elements/1.1/"
   xmlns:cc="http://creativecommons.org/ns#"
   xmlns:rdf="http://www.w3.org/1999/02/22-rdf-syntax-ns#"
   xmlns:svg="http://www.w3.org/2000/svg"
   xmlns="http://www.w3.org/2000/svg"
   version="1.1"
   id="svg5943"
   viewBox="0 0 99.999997 99.999997"
   height="28.222221mm"
   width="28.222221mm">
  <defs
     id="defs5945" />
  <metadata
     id="metadata5948">
    <rdf:RDF>
      <cc:Work
         rdf:about="">
        <dc:format>image/svg+xml</dc:format>
        <dc:type
           rdf:resource="http://purl.org/dc/dcmitype/StillImage" />
        <dc:title></dc:title>
      </cc:Work>
    </rdf:RDF>
  </metadata>
  <g
     transform="translate(-170,-328.07648)"
     id="layer1">
    <circle
       style="display:inline;opacity:1;fill:#f2f2f2;fill-opacity:1;fill-rule:evenodd;stroke:none;stroke-width:0.75;stroke-linecap:round;stroke-linejoin:round;stroke-miterlimit:4;stroke-dasharray:none;stroke-opacity:1"
       id="circle3774"
       cx="221.8074"
       cy="382.33661"
       r="35.738155" />
    <path
       style="display:inline;fill:#660000;fill-opacity:1;fill-rule:evenodd;stroke:none;stroke-width:0.20000002;stroke-linecap:butt;stroke-linejoin:miter;stroke-miterlimit:4;stroke-dasharray:none;stroke-opacity:1"
       d="m 234.19343,333.17652 c 4.59159,10.40364 9.53158,21.95137 14.98823,32.36201 -1.01259,8.03261 -0.34172,15.84848 -0.73712,23.90968 0.15645,2.05535 -0.92749,4.36038 -2.10863,6.68326 -2.44797,3.70825 -15.24553,7.8629 -27.39426,7.5723 -4.07328,-1.55221 -7.4751,-2.54965 -10.11871,-8.00117 l -5.8568,-5.95508 c -4.75186,-3.30872 -9.53968,-6.60534 -11.861,-10.68161 -1.68471,-9.84219 -1.53052,-20.14243 -2.26497,-30.22215 l -2.41243,1.76911 c 1.07695,9.70727 0.31829,18.92678 -0.44227,28.10904 l -13.58544,-1.42958 c 0.0249,1.01407 0.49688,1.97632 1.57254,2.85917 0.9682,-0.1492 10.54608,0.98321 14.08132,3.34609 5.41777,3.62108 10.94918,8.35093 14.46998,13.14317 1.34494,1.83062 1.00148,2.06369 2.03268,4.0877 2.29954,4.51339 8.5015,12.59812 8.5015,12.59812 0.38537,1.9318 0.15835,5.7684 0.86953,6.59563 1.50577,1.75073 7.49633,2.16435 7.49633,-0.285 0,-2.28732 -1.66274,-2.85882 0.0999,-6.11405 10.11876,-6.6127 21.99361,-8.24632 31.40155,-16.4982 3.53799,-6.39589 9.76771,-11.78195 14.67547,-17.66419 l -2.65812,-0.29486 -12.70981,13.29505 c 0.11256,-7.62524 -1.35824,-15.25211 -0.39762,-22.87768 1.61821,-4.43857 4.6104,-7.54479 6.96472,-10.38678 3.12128,-3.61119 5.84024,-7.45364 8.9974,-11.04347 l 0,-3.05124 c -5.08023,6.71736 -11.16352,12.26349 -16.40374,17.2232 -5.63798,-8.21555 -10.4403,-18.56563 -13.59837,-28.60959 z"
       id="path3776" />
    <path
       style="display:inline;fill:#112244;fill-opacity:1;fill-rule:evenodd;stroke:none;stroke-width:1px;stroke-linecap:butt;stroke-linejoin:miter;stroke-opacity:1"
       d="m 212.24223,404.93375 c -10.67719,-6.95051 -4.18305,-22.36625 0.80799,-27.07656 -2.59603,-2.49293 -1.9378,-5.66632 -2.29034,-8.37504 0.13485,-1.83085 1.52903,-3.75504 0,-5.46265 1.69083,-0.0179 3.23686,-0.16325 5.3839,0.2083 3.62775,-1.93019 8.32383,-0.75394 12.04739,-0.2083 1.97155,-0.0286 4.0471,-0.5256 5.89548,0 -0.96642,1.94668 -0.008,3.63673 0,5.45355 -0.0737,4.51971 -7.29909,11.40572 -8.61863,12.74191 0.96386,1.34057 8.65815,0.23518 9.40498,1.44823 2.26971,3.68664 3.34859,7.79452 2.09064,18.46346 -0.0468,0.37962 -0.0466,1.16488 -0.18194,1.22318 -11.13478,4.79908 -17.45047,3.67835 -24.53947,1.58392 z"
       id="path3778" />
    <path
       style="display:inline;fill:#112244;fill-opacity:1;fill-rule:evenodd;stroke:none;stroke-width:1px;stroke-linecap:butt;stroke-linejoin:miter;stroke-opacity:1"
       d="m 187.49098,349.83192 -1.06325,0.78182 c 1.07293,9.67112 0.30649,18.98305 -0.4512,28.13138 l 1.52786,0.27697 c 0,0 0.50034,-16.65457 0.60757,-18.44153 0.0832,-1.38563 -0.3742,-7.52247 -0.62098,-10.74864 z"
       id="path3780" />
    <path
       style="display:inline;fill:#112244;fill-opacity:1;fill-rule:evenodd;stroke:none;stroke-width:1px;stroke-linecap:butt;stroke-linejoin:miter;stroke-opacity:1"
       d="m 172.79315,378.77192 c 0.25557,0.47766 0.64157,0.93901 1.1794,1.38043 0.96819,-0.14914 10.54608,0.98323 14.08133,3.34609 5.41776,3.62108 10.94919,8.35093 14.47,13.14318 1.34494,1.83062 1.00148,2.0637 2.03267,4.0877 2.29954,4.51339 8.50149,12.59813 8.50149,12.59813 0.3854,1.93179 0.15851,5.76751 0.86957,6.59475 0.95955,1.11567 3.37287,0.93715 5.75106,0.65589 -3.77279,-9.63203 3.67653,-10.40179 13.91332,-18.47514 -4.88114,1.34071 -8.88714,1.73953 -14.65046,1.60168 -4.07327,-1.55221 -7.47511,-2.54965 -10.11871,-8.00117 l -2.47495,-2.51516 c -1.53865,0.45225 -4.12195,-0.47398 -4.19044,-0.54949 -2.07288,-2.28733 -10.7933,-9.25649 -12.93767,-10.29294 -1.92444,-0.93015 -13.76718,-3.0918 -16.42672,-3.57395 z"
       id="path3782" />
    <path
       style="display:inline;fill:#112244;fill-opacity:1;fill-rule:evenodd;stroke:none;stroke-width:0.20000002;stroke-linecap:butt;stroke-linejoin:miter;stroke-miterlimit:4;stroke-dasharray:none;stroke-opacity:1"
       d="m 252.83601,397.10177 c -8.42259,4.84161 -15.64979,7.24777 -20.50216,6.36818 -3.8845,-0.70413 -7.50323,1.29502 -12.13138,2.3023 -4.44899,0.94658 -7.42765,0.958 -15.23939,-4.31922 2.52871,4.59873 8.09496,11.87442 8.09496,11.87442 0.3854,1.93179 -0.32603,9.01731 0.38504,9.84453 1.84685,0.12084 6.30709,-2.21463 9.06808,-1.94457 2.27646,0.22267 -2.18002,-4.39116 -0.41746,-7.64638 10.08675,-6.59182 21.34851,-8.29509 30.7422,-16.47926 z"
       id="path3784" />
    <path
       id="path3786"
       d="m 220.56644,363.16743 c -1.55325,0.047 -3.06147,0.3348 -4.42188,1.0586 -0.84972,-0.14707 -1.59335,-0.19924 -2.30078,-0.22461 -1.05633,1.17839 -1.98012,2.47416 -2.75391,3.86328 -0.1497,0.54151 -0.29079,1.08393 -0.33007,1.61719 0.35255,2.70872 -0.30503,5.88207 2.29101,8.375 -1.35636,1.28008 -2.81632,3.365 -4.01953,5.8418 2.36784,9.44727 10.68875,16.05543 20.22266,16.0625 2.77652,-0.008 5.52238,-0.57837 8.08007,-1.6836 0.73954,-10.57798 -1.53763,-13.2634 -4.98437,-18.05078 -1.48902,0.82257 -3.1433,1.34468 -4.7832,1.89062 2.69757,-1.2954 4.39569,-2.78433 5.72656,-4.21679 0.53321,-2.09853 0.74314,-5.1709 0.79297,-8.22656 -0.008,-1.81682 -0.96641,-3.51037 0,-5.45704 -1.84836,-0.5256 -3.92102,-0.0286 -5.89258,0 -2.32723,-0.34104 -5.03819,-0.92829 -7.62695,-0.84961 z"
       style="display:inline;opacity:1;fill:#114499;fill-opacity:1;fill-rule:evenodd;stroke:none;stroke-width:1;stroke-linecap:round;stroke-linejoin:round;stroke-miterlimit:4;stroke-dasharray:none;stroke-opacity:1" />
    <path
       style="display:inline;opacity:1;fill:#ff9922;fill-opacity:1;fill-rule:nonzero;stroke:none;stroke-width:0.53091681;stroke-linecap:round;stroke-linejoin:round;stroke-miterlimit:4;stroke-dasharray:none;stroke-opacity:1"
       d="m 227.94381,371.05954 -0.88939,0.33352 a 1.0459812,1.0558489 0 0 1 0.74764,1.00889 1.0459812,1.0558489 0 0 1 -1.04503,1.05612 1.0459812,1.0558489 0 0 1 -1.04779,-1.05612 1.0459812,1.0558489 0 0 1 0.16675,-0.56699 l -0.98943,0.36965 c -0.074,0.21769 -0.11346,0.44541 -0.11397,0.67536 -7.1e-4,1.1675 0.94479,2.11579 2.11228,2.11507 1.16751,7.2e-4 2.11579,-0.94756 2.11506,-2.11507 -0.003,-0.75218 -0.4046,-1.44457 -1.05614,-1.82043 z"
       id="path3788" />
    <path
       style="display:inline;fill:#ff9922;fill-opacity:1;fill-rule:evenodd;stroke:none;stroke-width:1px;stroke-linecap:butt;stroke-linejoin:miter;stroke-opacity:1"
       d="m 236.63712,333.47223 c 1.20992,4.39975 5.09537,13.7304 5.93274,15.5913 0.90979,2.02171 7.68398,14.50573 7.68398,14.50573 l 1.20621,-1.40722 c -0.0206,0.0206 -0.0454,0.0424 -0.0671,0.0625 -5.63797,-8.21556 -10.44077,-18.56544 -13.59884,-28.60939 l -1.15706,-0.14295 z"
       id="path3790" />
    <path
       style="display:inline;fill:#ff9922;fill-opacity:1;fill-rule:evenodd;stroke:none;stroke-width:1px;stroke-linecap:butt;stroke-linejoin:miter;stroke-opacity:1"
       d="m 267.79744,345.00265 c -3.75083,4.95953 -8.04541,9.27469 -12.14693,13.19229 6.54401,-4.32852 8.49482,-7.19707 12.14693,-11.20875 z"
       id="path3792" />
    <path
       style="display:inline;fill:#ff9922;fill-opacity:1;fill-rule:evenodd;stroke:none;stroke-width:1px;stroke-linecap:butt;stroke-linejoin:miter;stroke-opacity:1"
       d="m 264.94274,379.06676 -12.48646,13.0583 -0.22783,0.2501 0.79075,-0.36632 c 0,0 3.09725,-2.05662 3.8554,-2.96638 0.66703,-0.80048 7.63174,-7.91851 9.49328,-9.81941 l -1.42512,-0.15645 z"
       id="path3794" />
    <g
       transform="matrix(0.72144052,0,0,0.72144052,-333.36768,386.18914)"
       style="display:inline"
       id="g3796">
      <path
         id="path3798"
         d="m 770.48878,-14.665586 c -0.90312,0 -1.63649,0.733336 -1.63649,1.636502 0,0.903164 0.98241,2.287086 1.63649,4.249449 0.65415,-1.962363 1.63654,-3.346285 1.63654,-4.249449 0,-0.903166 -0.73333,-1.636502 -1.63654,-1.636502 z"
         style="opacity:1;fill:#ffffff;fill-opacity:1;fill-rule:evenodd;stroke:none;stroke-width:0.10067576;stroke-linecap:round;stroke-linejoin:round;stroke-miterlimit:4;stroke-dasharray:none;stroke-opacity:1" />
    </g>
    <path
       style="display:inline;opacity:1;fill:#ff9922;fill-opacity:1;fill-rule:nonzero;stroke:none;stroke-width:0.53091681;stroke-linecap:round;stroke-linejoin:round;stroke-miterlimit:4;stroke-dasharray:none;stroke-opacity:1"
       d="m 216.48444,371.05914 0.88938,0.33351 a 1.0459812,1.0558489 0 0 0 -0.74764,1.00889 1.0459812,1.0558489 0 0 0 1.04502,1.05612 1.0459812,1.0558489 0 0 0 1.0478,-1.05612 1.0459812,1.0558489 0 0 0 -0.16675,-0.56698 l 0.98942,0.36965 c 0.0741,0.21769 0.11346,0.44541 0.11397,0.67535 7.3e-4,1.1675 -0.94478,2.11579 -2.11227,2.11507 -1.16751,7.2e-4 -2.11578,-0.94756 -2.11505,-2.11507 0.003,-0.75217 0.40459,-1.44456 1.05613,-1.82042 z"
       id="path3802" />
  </g>
</svg>
